<svg width="1440" height="680" viewBox="0 0 1440 680" fill="none" xmlns="http://www.w3.org/2000/svg">
<path fill-rule="evenodd" clip-rule="evenodd" d="M4.80004 116.63L13.0565 121.416C41.7502 138.05 78.3744 122.432 86.2334 90.21L100.5 31.7168L100.856 29.9052C108.54 -9.2337 164.162 -10.2463 173.266 28.587C173.755 30.6696 174.422 32.7061 175.262 34.6735L200.682 94.2288C210.84 118.027 244.224 118.978 255.72 95.797L256.235 94.7589C256.744 93.7332 257.154 92.6615 257.461 91.5583L257.947 89.8078C261.711 76.257 279.266 72.7104 287.995 83.7372C292.498 89.4243 300.085 91.6744 306.96 89.3613L333.054 80.582C343.291 77.1375 351.815 69.8923 356.864 60.3432L358.688 56.8937C366.537 42.0482 383.389 34.3373 399.754 38.1028L402.235 38.6735C417.607 42.2105 428.5 55.8946 428.5 71.6686C428.5 84.8157 436.111 96.7741 448.021 102.341L454.246 105.25C466.994 111.209 481.806 110.809 494.214 104.172L566.408 65.5567C576.644 60.0815 588.074 57.2169 599.682 57.2169C619.331 57.2169 638.089 65.4113 651.441 79.827L679.26 109.863C691.732 123.329 710.576 128.885 728.359 124.339C750.506 118.678 766 98.725 766 75.8653V57.2169C766 38.0234 789.484 28.7257 802.622 42.7174L804.5 44.7169L849.201 80.6829C871.481 98.6095 904.486 92.5453 918.939 67.8698C927.339 53.5289 942.712 44.7169 959.332 44.7169H990.754C1009.02 44.7169 1026.39 52.6199 1038.39 66.3888C1061.55 92.9654 1101.97 95.4483 1128.21 71.9053L1155.96 47.0049C1166.93 37.1613 1181.15 31.7168 1195.89 31.7168C1216.49 31.7168 1235.64 42.3204 1246.57 59.7801L1266.51 91.6403C1267.17 92.6899 1267.9 93.6889 1268.71 94.6291C1281.94 110.063 1307.09 103.97 1311.79 84.1923L1323.98 32.8962C1328.12 15.4471 1350.37 10.1599 1361.93 23.8784L1371.53 35.2882C1379.15 44.3332 1393.82 40.8132 1396.51 29.297C1399.56 16.2206 1417.28 14.1043 1423.32 26.0956L1439 57.2169L1458.33 90.9036C1467.29 106.507 1472 124.183 1472 142.173V379.717H1440V847.094H0V379.717H-16.5V128.902C-16.5 121.068 -10.1489 114.717 -2.31445 114.717C0.184139 114.717 2.6384 115.377 4.80004 116.63Z" fill="black"/>
</svg>
