<svg width="101" height="87" viewBox="0 0 101 87" fill="none" xmlns="http://www.w3.org/2000/svg">
<circle cx="4" cy="83" r="2.75" stroke="black" stroke-width="2.5"/>
<circle cx="21" cy="74" r="5.5" stroke="black" stroke-width="3"/>
<path d="M94.0727 29.5593C94.4866 28.1017 94.7132 26.5664 94.7132 24.9826C94.7132 20.2989 92.8114 16.0332 89.737 12.9528C86.6625 9.87253 82.3958 7.94856 77.6856 7.95827C75.705 7.95827 73.8032 8.30809 72.0393 8.92998C68.4131 3.55644 62.2642 0 55.2679 0C49.9172 0 45.0395 2.08917 41.433 5.47071C38.3389 8.37611 36.171 12.2435 35.3728 16.5967C34.5747 16.4801 33.7666 16.4121 32.9291 16.4121C28.2484 16.4121 23.9915 18.3167 20.9368 21.3873C17.892 24.4384 16 28.6848 16 33.349C16 39.2569 19.035 44.475 23.6368 47.5067C23.6269 47.7302 23.6072 47.9537 23.6072 48.1869C23.6072 51.8697 24.7207 55.3581 26.8689 58.0109C27.943 59.3324 29.293 60.4401 30.8597 61.2078C32.4364 61.9754 34.2298 62.403 36.1611 62.403C36.8903 62.403 37.5998 62.2961 38.2994 62.16C39.1272 61.9851 39.9253 61.7616 40.6053 61.5479C40.9206 62.1115 41.3345 62.7722 41.8469 63.4524C42.5563 64.3853 43.4728 65.357 44.6552 66.1829C45.8279 66.9991 47.2961 67.6502 48.991 67.864C49.73 67.9514 50.4493 68 51.1391 68C55.0708 68 58.165 66.6396 60.2343 65.2987C61.0719 64.7545 61.7518 64.2201 62.2642 63.7536C62.6682 63.9771 63.1412 64.2103 63.693 64.4533C65.4667 65.2306 67.9795 66.008 70.9751 66.008C71.6747 66.008 72.4039 65.9691 73.1429 65.872C76.7593 65.4055 80.4447 63.8605 83.3418 61.2952C84.7903 60.0126 86.0319 58.4578 86.9187 56.6602C87.51 55.465 87.9238 54.1532 88.1603 52.7539C88.3673 52.7636 88.5643 52.7928 88.7713 52.7928C92.1512 52.7928 95.2256 51.413 97.4329 49.1975C99.6402 46.9917 101 43.9308 101 40.5687C101 35.7199 98.1818 31.5319 94.0727 29.5593ZM94.6245 46.467C93.1169 47.9731 91.0574 48.8963 88.7811 48.8963C88.1406 48.8963 87.51 48.8185 86.8793 48.663L84.4848 48.0995L84.4454 50.5287C84.4158 52.1806 84.0414 53.6382 83.391 54.95C82.4253 56.9031 80.829 58.5356 78.9174 59.7502C77.0057 60.9648 74.7688 61.7422 72.6503 62.0143C72.0787 62.092 71.5269 62.1212 70.9849 62.1212C68.689 62.1212 66.6985 61.5187 65.2992 60.8968C64.5996 60.5956 64.0478 60.2846 63.6733 60.0612C63.4861 59.9543 63.358 59.8571 63.2693 59.7988L63.1806 59.7405L63.1708 59.7308L61.6533 58.5939L60.4609 60.0514C60.4314 60.0806 59.5347 61.13 57.9285 62.1309C56.3223 63.1318 54.046 64.0937 51.149 64.0937C50.6169 64.0937 50.065 64.0646 49.4935 63.9869C48.518 63.8702 47.6902 63.501 46.9413 62.986C45.818 62.2183 44.9114 61.062 44.3301 60.0903C44.0344 59.6045 43.8176 59.1769 43.6797 58.8757C43.6107 58.7299 43.5614 58.6133 43.5319 58.5356L43.5023 58.4578V58.4481L42.8125 56.563L40.9206 57.3112L40.891 57.3209C40.7334 57.3792 39.9155 57.6902 38.94 57.9817C38.4473 58.1275 37.925 58.2635 37.4323 58.351C36.9396 58.4481 36.4863 58.4967 36.1907 58.4967C34.8309 58.4967 33.6681 58.2052 32.6334 57.7096C31.0962 56.9614 29.8448 55.6982 28.9579 54.0463C28.0711 52.3944 27.5685 50.3538 27.5685 48.1772C27.5685 47.7205 27.6079 47.2444 27.6868 46.7488L27.874 45.437L26.7014 44.7859C22.6908 42.5607 19.9613 38.2852 19.9613 33.3392C19.9613 29.7148 21.4197 26.4596 23.7846 24.0886C26.1495 21.7274 29.3816 20.2795 32.9685 20.2698C34.2002 20.2698 35.3925 20.4544 36.5356 20.7848L38.8808 21.4553L39.0483 19.0552C39.3538 14.7991 41.2655 10.9997 44.1822 8.2595C47.099 5.51929 50.9913 3.85767 55.2975 3.85767C61.4168 3.85767 66.7477 7.23921 69.5463 12.2726L70.443 13.8954L72.128 13.0889C73.8327 12.2726 75.7148 11.8159 77.7152 11.8159C81.3217 11.8159 84.5834 13.2735 86.9581 15.6542C89.3329 18.0349 90.8012 21.3095 90.8012 24.9631C90.8012 26.7316 90.4464 28.4127 89.8158 29.948L88.9979 31.94L91.087 32.5424C94.526 33.5336 97.088 36.7305 97.0781 40.5493C97.0584 42.8814 96.1322 44.9608 94.6245 46.467Z" fill="black"/>
<path d="M41.0005 44.12C40.3925 44.12 39.9605 43.8 39.7045 43.16C39.4645 42.52 39.3445 41.496 39.3445 40.088C39.3445 38.008 39.6405 36.032 40.2325 34.16C40.3765 33.696 40.6085 33.36 40.9285 33.152C41.2645 32.928 41.7285 32.816 42.3205 32.816C42.6405 32.816 42.8645 32.856 42.9925 32.936C43.1205 33.016 43.1845 33.168 43.1845 33.392C43.1845 33.648 43.0645 34.224 42.8245 35.12C42.6645 35.76 42.5365 36.32 42.4405 36.8C42.3445 37.264 42.2645 37.848 42.2005 38.552C42.6325 37.304 43.1445 36.248 43.7365 35.384C44.3445 34.52 44.9605 33.88 45.5845 33.464C46.2245 33.032 46.8245 32.816 47.3845 32.816C47.9445 32.816 48.3365 32.944 48.5605 33.2C48.8005 33.456 48.9205 33.848 48.9205 34.376C48.9205 34.888 48.7685 35.816 48.4645 37.16C48.3365 37.736 48.2485 38.168 48.2005 38.456C49.0005 36.488 49.8885 35.056 50.8645 34.16C51.8405 33.264 52.7525 32.816 53.6005 32.816C54.6405 32.816 55.1605 33.336 55.1605 34.376C55.1605 35 54.9845 36.128 54.6325 37.76C54.3285 39.152 54.1765 40.072 54.1765 40.52C54.1765 41.16 54.4085 41.48 54.8725 41.48C55.1925 41.48 55.5685 41.288 56.0005 40.904C56.4485 40.504 57.0405 39.864 57.7765 38.984C57.9685 38.76 58.1845 38.648 58.4245 38.648C58.6325 38.648 58.7925 38.744 58.9045 38.936C59.0325 39.128 59.0965 39.392 59.0965 39.728C59.0965 40.368 58.9445 40.864 58.6405 41.216C57.9525 42.064 57.2085 42.76 56.4085 43.304C55.6245 43.848 54.7285 44.12 53.7205 44.12C52.9045 44.12 52.2885 43.888 51.8725 43.424C51.4565 42.944 51.2485 42.256 51.2485 41.36C51.2485 40.912 51.3605 40.112 51.5845 38.96C51.7925 37.952 51.8965 37.256 51.8965 36.872C51.8965 36.616 51.8085 36.488 51.6325 36.488C51.4245 36.488 51.1285 36.76 50.7445 37.304C50.3605 37.832 49.9765 38.536 49.5925 39.416C49.2085 40.296 48.8965 41.224 48.6565 42.2C48.4805 42.968 48.2725 43.48 48.0325 43.736C47.8085 43.992 47.4405 44.12 46.9285 44.12C46.4005 44.12 46.0005 43.872 45.7285 43.376C45.4725 42.864 45.3445 42.248 45.3445 41.528C45.3445 40.92 45.4245 40.04 45.5845 38.888C45.7125 37.864 45.7765 37.192 45.7765 36.872C45.7765 36.616 45.6885 36.488 45.5125 36.488C45.2725 36.488 44.9685 36.776 44.6005 37.352C44.2325 37.928 43.8725 38.664 43.5205 39.56C43.1845 40.456 42.9125 41.336 42.7045 42.2C42.5285 42.952 42.3205 43.464 42.0805 43.736C41.8565 43.992 41.4965 44.12 41.0005 44.12ZM59.6039 44.12C58.8839 44.12 58.2919 43.792 57.8279 43.136C57.3799 42.464 57.1559 41.632 57.1559 40.64C57.1559 39.44 57.2359 38.344 57.3959 37.352C57.5559 36.344 57.8199 35.28 58.1879 34.16C58.3479 33.68 58.5719 33.336 58.8599 33.128C59.1479 32.92 59.6039 32.816 60.2279 32.816C60.5799 32.816 60.8199 32.872 60.9479 32.984C61.0919 33.096 61.1639 33.264 61.1639 33.488C61.1639 33.616 61.0759 34.048 60.8999 34.784C60.7399 35.376 60.6119 35.912 60.5159 36.392C60.1959 38.072 60.0359 39.192 60.0359 39.752C60.0359 40.088 60.0759 40.328 60.1559 40.472C60.2359 40.6 60.3639 40.664 60.5399 40.664C60.7799 40.664 61.0759 40.424 61.4279 39.944C61.7959 39.464 62.1799 38.736 62.5799 37.76C62.9959 36.784 63.3959 35.584 63.7799 34.16C63.9079 33.68 64.0999 33.336 64.3559 33.128C64.6279 32.92 65.0279 32.816 65.5559 32.816C65.9239 32.816 66.1799 32.864 66.3239 32.96C66.4679 33.04 66.5399 33.2 66.5399 33.44C66.5399 33.84 66.3399 34.936 65.9399 36.728C65.4919 38.776 65.2679 40.04 65.2679 40.52C65.2679 40.824 65.3319 41.064 65.4599 41.24C65.5879 41.4 65.7559 41.48 65.9639 41.48C66.2839 41.48 66.6599 41.288 67.0919 40.904C67.5399 40.504 68.1319 39.864 68.8679 38.984C69.0599 38.76 69.2759 38.648 69.5159 38.648C69.7239 38.648 69.8839 38.744 69.9959 38.936C70.1239 39.128 70.1879 39.392 70.1879 39.728C70.1879 40.368 70.0359 40.864 69.7319 41.216C69.0439 42.064 68.2999 42.76 67.4999 43.304C66.7159 43.848 65.8199 44.12 64.8119 44.12C64.0439 44.12 63.4759 43.824 63.1079 43.232C62.7559 42.64 62.5799 41.808 62.5799 40.736C62.3079 41.824 61.8999 42.664 61.3559 43.256C60.8119 43.832 60.2279 44.12 59.6039 44.12ZM76.7378 32.816C77.2498 32.816 77.6338 32.952 77.8898 33.224C78.1618 33.48 78.2978 33.864 78.2978 34.376C78.2978 34.792 78.2098 35.576 78.0338 36.728C77.8738 37.704 77.7458 38.632 77.6498 39.512C77.5538 40.376 77.5058 41.344 77.5058 42.416C77.5058 43.024 77.3778 43.464 77.1218 43.736C76.8818 43.992 76.4818 44.12 75.9218 44.12C75.3938 44.12 75.0098 43.984 74.7698 43.712C74.5298 43.44 74.4098 43.032 74.4098 42.488C74.4098 41.848 74.5218 40.792 74.7458 39.32C74.9378 38.04 75.0338 37.224 75.0338 36.872C75.0338 36.616 74.9458 36.488 74.7698 36.488C74.5618 36.488 74.2658 36.76 73.8818 37.304C73.4978 37.832 73.1138 38.536 72.7298 39.416C72.3458 40.296 72.0338 41.224 71.7938 42.2C71.6178 42.952 71.4098 43.464 71.1698 43.736C70.9458 43.992 70.5858 44.12 70.0898 44.12C69.5938 44.12 69.2258 43.944 68.9858 43.592C68.7618 43.224 68.6098 42.664 68.5298 41.912C68.4498 41.16 68.4098 40.056 68.4098 38.6C68.4098 36.136 68.6578 33.568 69.1538 30.896C69.6658 28.224 70.4098 25.984 71.3858 24.176C72.3778 22.352 73.5618 21.44 74.9378 21.44C75.6738 21.44 76.2658 21.76 76.7138 22.4C77.1778 23.024 77.4098 23.84 77.4098 24.848C77.4098 26.464 76.9378 28.144 75.9938 29.888C75.0498 31.616 73.5138 33.64 71.3858 35.96C71.3378 36.792 71.3138 37.648 71.3138 38.528C71.8418 37.168 72.4258 36.064 73.0658 35.216C73.7218 34.352 74.3618 33.736 74.9858 33.368C75.6258 33 76.2098 32.816 76.7378 32.816ZM74.4338 23.816C74.1458 23.816 73.8258 24.232 73.4738 25.064C73.1218 25.88 72.7778 26.992 72.4418 28.4C72.1218 29.792 71.8578 31.312 71.6498 32.96C72.6418 31.792 73.4578 30.52 74.0978 29.144C74.7538 27.768 75.0818 26.52 75.0818 25.4C75.0818 24.888 75.0258 24.496 74.9138 24.224C74.8018 23.952 74.6418 23.816 74.4338 23.816Z" fill="black"/>
</svg>
